<?xml version="1.0" encoding="UTF-8" standalone="no"?>
<!DOCTYPE svg PUBLIC "-//W3C//DTD SVG 1.1//EN"
 "http://www.w3.org/Graphics/SVG/1.1/DTD/svg11.dtd">
<!-- Generated by graphviz version 2.40.1 (20161225.0304)
 -->
<!-- Title: dependency&#45;cruiser output Pages: 1 -->
<svg width="527pt" height="211pt"
 viewBox="0.00 0.00 526.81 210.50" xmlns="http://www.w3.org/2000/svg" xmlns:xlink="http://www.w3.org/1999/xlink">
<g id="graph0" class="graph" transform="scale(1 1) rotate(0) translate(4 206.5)">
<title>dependency&#45;cruiser output</title>
<polygon fill="#ffffff" stroke="transparent" points="-4,4 -4,-206.5 522.8086,-206.5 522.8086,4 -4,4"/>
<g id="clust1" class="cluster">
<title>cluster_lib</title>
<path fill="#ffffff" stroke="#000000" stroke-width="2" d="M20,-25.5C20,-25.5 498.8086,-25.5 498.8086,-25.5 504.8086,-25.5 510.8086,-31.5 510.8086,-37.5 510.8086,-37.5 510.8086,-182.5 510.8086,-182.5 510.8086,-188.5 504.8086,-194.5 498.8086,-194.5 498.8086,-194.5 20,-194.5 20,-194.5 14,-194.5 8,-188.5 8,-182.5 8,-182.5 8,-37.5 8,-37.5 8,-31.5 14,-25.5 20,-25.5"/>
<text text-anchor="middle" x="259.4043" y="-183.3" font-family="Helvetica,sans-Serif" font-weight="bold" font-size="9.00" fill="#000000">lib</text>
</g>
<g id="clust2" class="cluster">
<title>cluster_lib/data</title>
<path fill="#ffffff" stroke="#000000" stroke-width="2" d="M251.2622,-59.5C251.2622,-59.5 490.8086,-59.5 490.8086,-59.5 496.8086,-59.5 502.8086,-65.5 502.8086,-71.5 502.8086,-71.5 502.8086,-157.5 502.8086,-157.5 502.8086,-163.5 496.8086,-169.5 490.8086,-169.5 490.8086,-169.5 251.2622,-169.5 251.2622,-169.5 245.2622,-169.5 239.2622,-163.5 239.2622,-157.5 239.2622,-157.5 239.2622,-71.5 239.2622,-71.5 239.2622,-65.5 245.2622,-59.5 251.2622,-59.5"/>
<text text-anchor="middle" x="371.0354" y="-158.3" font-family="Helvetica,sans-Serif" font-weight="bold" font-size="9.00" fill="#000000">data</text>
</g>
<g id="clust3" class="cluster">
<title>cluster_lib/data/__test</title>
<path fill="#ffffff" stroke="#000000" stroke-width="2" d="M321.2622,-93.5C321.2622,-93.5 404.791,-93.5 404.791,-93.5 410.791,-93.5 416.791,-99.5 416.791,-105.5 416.791,-105.5 416.791,-132.5 416.791,-132.5 416.791,-138.5 410.791,-144.5 404.791,-144.5 404.791,-144.5 321.2622,-144.5 321.2622,-144.5 315.2622,-144.5 309.2622,-138.5 309.2622,-132.5 309.2622,-132.5 309.2622,-105.5 309.2622,-105.5 309.2622,-99.5 315.2622,-93.5 321.2622,-93.5"/>
<text text-anchor="middle" x="363.0266" y="-133.3" font-family="Helvetica,sans-Serif" font-weight="bold" font-size="9.00" fill="#000000">__test</text>
</g>
<g id="clust4" class="cluster">
<title>cluster_lib/helpers</title>
<path fill="#ffffff" stroke="#000000" stroke-width="2" d="M90,-33.5C90,-33.5 219.2622,-33.5 219.2622,-33.5 225.2622,-33.5 231.2622,-39.5 231.2622,-45.5 231.2622,-45.5 231.2622,-72.5 231.2622,-72.5 231.2622,-78.5 225.2622,-84.5 219.2622,-84.5 219.2622,-84.5 90,-84.5 90,-84.5 84,-84.5 78,-78.5 78,-72.5 78,-72.5 78,-45.5 78,-45.5 78,-39.5 84,-33.5 90,-33.5"/>
<text text-anchor="middle" x="154.6311" y="-73.3" font-family="Helvetica,sans-Serif" font-weight="bold" font-size="9.00" fill="#000000">helpers</text>
</g>
<g id="clust5" class="cluster">
<title>cluster_lib/routes</title>
<path fill="#ffffff" stroke="#000000" stroke-width="2" d="M90,-92.5C90,-92.5 136,-92.5 136,-92.5 142,-92.5 148,-98.5 148,-104.5 148,-104.5 148,-131.5 148,-131.5 148,-137.5 142,-143.5 136,-143.5 136,-143.5 90,-143.5 90,-143.5 84,-143.5 78,-137.5 78,-131.5 78,-131.5 78,-104.5 78,-104.5 78,-98.5 84,-92.5 90,-92.5"/>
<text text-anchor="middle" x="113" y="-132.3" font-family="Helvetica,sans-Serif" font-weight="bold" font-size="9.00" fill="#000000">routes</text>
</g>
<g id="clust6" class="cluster">
<title>cluster_lib/user</title>
<path fill="#ffffff" stroke="#000000" stroke-width="2" d="M168,-92.5C168,-92.5 214,-92.5 214,-92.5 220,-92.5 226,-98.5 226,-104.5 226,-104.5 226,-131.5 226,-131.5 226,-137.5 220,-143.5 214,-143.5 214,-143.5 168,-143.5 168,-143.5 162,-143.5 156,-137.5 156,-131.5 156,-131.5 156,-104.5 156,-104.5 156,-98.5 162,-92.5 168,-92.5"/>
<text text-anchor="middle" x="191" y="-132.3" font-family="Helvetica,sans-Serif" font-weight="bold" font-size="9.00" fill="#000000">user</text>
</g>
<!-- lib/config.js -->
<g id="node1" class="node">
<title>lib/config.js</title>
<g id="a_node1"><a xlink:href="lib/config.js" xlink:title="config.js">
<path fill="#ffffcc" stroke="#000000" d="M295.5955,-51C295.5955,-51 252.9289,-51 252.9289,-51 250.0955,-51 247.2622,-48.1667 247.2622,-45.3333 247.2622,-45.3333 247.2622,-39.6667 247.2622,-39.6667 247.2622,-36.8333 250.0955,-34 252.9289,-34 252.9289,-34 295.5955,-34 295.5955,-34 298.4289,-34 301.2622,-36.8333 301.2622,-39.6667 301.2622,-39.6667 301.2622,-45.3333 301.2622,-45.3333 301.2622,-48.1667 298.4289,-51 295.5955,-51"/>
<text text-anchor="middle" x="274.2622" y="-39.8" font-family="Helvetica,sans-Serif" font-size="9.00" fill="#000000">config.js</text>
</a>
</g>
</g>
<!-- lib/data/__test/user&#45;model.spec.js -->
<g id="node2" class="node">
<title>lib/data/__test/user&#45;model.spec.js</title>
<g id="a_node2"><a xlink:href="lib/data/__test/user-model.spec.js" xlink:title="user&#45;model.spec.js">
<path fill="#ffffcc" stroke="#000000" d="M402.89,-119C402.89,-119 323.1633,-119 323.1633,-119 320.3299,-119 317.4966,-116.1667 317.4966,-113.3333 317.4966,-113.3333 317.4966,-107.6667 317.4966,-107.6667 317.4966,-104.8333 320.3299,-102 323.1633,-102 323.1633,-102 402.89,-102 402.89,-102 405.7233,-102 408.5566,-104.8333 408.5566,-107.6667 408.5566,-107.6667 408.5566,-113.3333 408.5566,-113.3333 408.5566,-116.1667 405.7233,-119 402.89,-119"/>
<text text-anchor="middle" x="363.0266" y="-107.8" font-family="Helvetica,sans-Serif" font-size="9.00" fill="#000000">user&#45;model.spec.js</text>
</a>
</g>
</g>
<!-- lib/data/user&#45;model.js -->
<g id="node5" class="node">
<title>lib/data/user&#45;model.js</title>
<g id="a_node5"><a xlink:href="lib/data/user-model.js" xlink:title="user&#45;model.js">
<path fill="#ffffcc" stroke="#000000" d="M489.1507,-102C489.1507,-102 430.4489,-102 430.4489,-102 427.6156,-102 424.7822,-99.1667 424.7822,-96.3333 424.7822,-96.3333 424.7822,-90.6667 424.7822,-90.6667 424.7822,-87.8333 427.6156,-85 430.4489,-85 430.4489,-85 489.1507,-85 489.1507,-85 491.9841,-85 494.8174,-87.8333 494.8174,-90.6667 494.8174,-90.6667 494.8174,-96.3333 494.8174,-96.3333 494.8174,-99.1667 491.9841,-102 489.1507,-102"/>
<text text-anchor="middle" x="459.7998" y="-90.8" font-family="Helvetica,sans-Serif" font-size="9.00" fill="#000000">user&#45;model.js</text>
</a>
</g>
</g>
<!-- lib/data/__test/user&#45;model.spec.js&#45;&gt;lib/data/user&#45;model.js -->
<g id="edge1" class="edge">
<title>lib/data/__test/user&#45;model.spec.js&#45;&gt;lib/data/user&#45;model.js</title>
<path fill="none" stroke="#000000" stroke-width="2" stroke-opacity="0.466667" d="M408.5795,-102.4978C410.6017,-102.1426 412.6306,-101.7862 414.6518,-101.4311"/>
<polygon fill="#000000" fill-opacity="0.466667" stroke="#000000" stroke-width="2" stroke-opacity="0.466667" points="415.3858,-104.8558 424.6294,-99.6783 414.1746,-97.9614 415.3858,-104.8558"/>
</g>
<!-- lib/data/index.js -->
<g id="node3" class="node">
<title>lib/data/index.js</title>
<g id="a_node3"><a xlink:href="lib/data/index.js" xlink:title="index.js">
<path fill="#ffffcc" stroke="#000000" d="M295.5955,-101C295.5955,-101 252.9289,-101 252.9289,-101 250.0955,-101 247.2622,-98.1667 247.2622,-95.3333 247.2622,-95.3333 247.2622,-89.6667 247.2622,-89.6667 247.2622,-86.8333 250.0955,-84 252.9289,-84 252.9289,-84 295.5955,-84 295.5955,-84 298.4289,-84 301.2622,-86.8333 301.2622,-89.6667 301.2622,-89.6667 301.2622,-95.3333 301.2622,-95.3333 301.2622,-98.1667 298.4289,-101 295.5955,-101"/>
<text text-anchor="middle" x="274.2622" y="-89.8" font-family="Helvetica,sans-Serif" font-size="9.00" fill="#000000">index.js</text>
</a>
</g>
</g>
<!-- lib/data/user&#45;data.js -->
<g id="node4" class="node">
<title>lib/data/user&#45;data.js</title>
<g id="a_node4"><a xlink:href="lib/data/user-data.js" xlink:title="user&#45;data.js">
<path fill="#ffffcc" stroke="#000000" d="M388.8814,-85C388.8814,-85 337.1718,-85 337.1718,-85 334.3385,-85 331.5051,-82.1667 331.5051,-79.3333 331.5051,-79.3333 331.5051,-73.6667 331.5051,-73.6667 331.5051,-70.8333 334.3385,-68 337.1718,-68 337.1718,-68 388.8814,-68 388.8814,-68 391.7148,-68 394.5481,-70.8333 394.5481,-73.6667 394.5481,-73.6667 394.5481,-79.3333 394.5481,-79.3333 394.5481,-82.1667 391.7148,-85 388.8814,-85"/>
<text text-anchor="middle" x="363.0266" y="-73.8" font-family="Helvetica,sans-Serif" font-size="9.00" fill="#000000">user&#45;data.js</text>
</a>
</g>
</g>
<!-- lib/data/index.js&#45;&gt;lib/data/user&#45;data.js -->
<g id="edge2" class="edge">
<title>lib/data/index.js&#45;&gt;lib/data/user&#45;data.js</title>
<path fill="none" stroke="#000000" stroke-width="2" stroke-opacity="0.466667" d="M301.3768,-87.6125C307.7482,-86.4641 314.6822,-85.2142 321.5244,-83.9809"/>
<polygon fill="#000000" fill-opacity="0.466667" stroke="#000000" stroke-width="2" stroke-opacity="0.466667" points="322.1869,-87.4179 331.4074,-82.1994 320.9451,-80.529 322.1869,-87.4179"/>
</g>
<!-- lib/data/user&#45;data.js&#45;&gt;lib/data/user&#45;model.js -->
<g id="edge3" class="edge">
<title>lib/data/user&#45;data.js&#45;&gt;lib/data/user&#45;model.js</title>
<path fill="none" stroke="#000000" stroke-width="2" stroke-opacity="0.466667" d="M394.7138,-82.0664C401.0082,-83.1722 407.7323,-84.3534 414.3814,-85.5214"/>
<polygon fill="#000000" fill-opacity="0.466667" stroke="#000000" stroke-width="2" stroke-opacity="0.466667" points="414.2409,-89.0503 424.6957,-87.3333 415.4521,-82.1558 414.2409,-89.0503"/>
</g>
<!-- lib/helpers/get&#45;config.js -->
<g id="node6" class="node">
<title>lib/helpers/get&#45;config.js</title>
<g id="a_node6"><a xlink:href="lib/helpers/get-config.js" xlink:title="get&#45;config.js">
<path fill="#ffffcc" stroke="#000000" d="M217.3595,-59C217.3595,-59 164.6405,-59 164.6405,-59 161.8072,-59 158.9738,-56.1667 158.9738,-53.3333 158.9738,-53.3333 158.9738,-47.6667 158.9738,-47.6667 158.9738,-44.8333 161.8072,-42 164.6405,-42 164.6405,-42 217.3595,-42 217.3595,-42 220.1928,-42 223.0262,-44.8333 223.0262,-47.6667 223.0262,-47.6667 223.0262,-53.3333 223.0262,-53.3333 223.0262,-56.1667 220.1928,-59 217.3595,-59"/>
<text text-anchor="middle" x="191" y="-47.8" font-family="Helvetica,sans-Serif" font-size="9.00" fill="#000000">get&#45;config.js</text>
</a>
</g>
</g>
<!-- lib/helpers/get&#45;config.js&#45;&gt;lib/config.js -->
<g id="edge4" class="edge">
<title>lib/helpers/get&#45;config.js&#45;&gt;lib/config.js</title>
<path fill="none" stroke="#000000" stroke-width="2" stroke-opacity="0.466667" d="M223.4298,-47.3841C227.8475,-46.9596 232.4108,-46.5212 236.9068,-46.0892"/>
<polygon fill="#000000" fill-opacity="0.466667" stroke="#000000" stroke-width="2" stroke-opacity="0.466667" points="237.556,-49.543 247.1754,-45.1026 236.8865,-42.5751 237.556,-49.543"/>
</g>
<!-- lib/helpers/index.js -->
<g id="node7" class="node">
<title>lib/helpers/index.js</title>
<g id="a_node7"><a xlink:href="lib/helpers/index.js" xlink:title="index.js">
<path fill="#ffffcc" stroke="#000000" d="M134.3333,-59C134.3333,-59 91.6667,-59 91.6667,-59 88.8333,-59 86,-56.1667 86,-53.3333 86,-53.3333 86,-47.6667 86,-47.6667 86,-44.8333 88.8333,-42 91.6667,-42 91.6667,-42 134.3333,-42 134.3333,-42 137.1667,-42 140,-44.8333 140,-47.6667 140,-47.6667 140,-53.3333 140,-53.3333 140,-56.1667 137.1667,-59 134.3333,-59"/>
<text text-anchor="middle" x="113" y="-47.8" font-family="Helvetica,sans-Serif" font-size="9.00" fill="#000000">index.js</text>
</a>
</g>
</g>
<!-- lib/helpers/index.js&#45;&gt;lib/helpers/get&#45;config.js -->
<g id="edge5" class="edge">
<title>lib/helpers/index.js&#45;&gt;lib/helpers/get&#45;config.js</title>
<path fill="none" stroke="#000000" stroke-width="2" stroke-opacity="0.466667" d="M140.2806,-50.5C142.9879,-50.5 145.7782,-50.5 148.5924,-50.5"/>
<polygon fill="#000000" fill-opacity="0.466667" stroke="#000000" stroke-width="2" stroke-opacity="0.466667" points="148.7819,-54.0001 158.7818,-50.5 148.7818,-47.0001 148.7819,-54.0001"/>
</g>
<!-- lib/routes/index.js -->
<g id="node8" class="node">
<title>lib/routes/index.js</title>
<g id="a_node8"><a xlink:href="lib/routes/index.js" xlink:title="index.js">
<path fill="#ffffcc" stroke="#000000" d="M134.3333,-118C134.3333,-118 91.6667,-118 91.6667,-118 88.8333,-118 86,-115.1667 86,-112.3333 86,-112.3333 86,-106.6667 86,-106.6667 86,-103.8333 88.8333,-101 91.6667,-101 91.6667,-101 134.3333,-101 134.3333,-101 137.1667,-101 140,-103.8333 140,-106.6667 140,-106.6667 140,-112.3333 140,-112.3333 140,-115.1667 137.1667,-118 134.3333,-118"/>
<text text-anchor="middle" x="113" y="-106.8" font-family="Helvetica,sans-Serif" font-size="9.00" fill="#000000">index.js</text>
</a>
</g>
</g>
<!-- lib/user/index.js -->
<g id="node10" class="node">
<title>lib/user/index.js</title>
<g id="a_node10"><a xlink:href="lib/user/index.js" xlink:title="index.js">
<path fill="#ffffcc" stroke="#000000" d="M212.3333,-118C212.3333,-118 169.6667,-118 169.6667,-118 166.8333,-118 164,-115.1667 164,-112.3333 164,-112.3333 164,-106.6667 164,-106.6667 164,-103.8333 166.8333,-101 169.6667,-101 169.6667,-101 212.3333,-101 212.3333,-101 215.1667,-101 218,-103.8333 218,-106.6667 218,-106.6667 218,-112.3333 218,-112.3333 218,-115.1667 215.1667,-118 212.3333,-118"/>
<text text-anchor="middle" x="191" y="-106.8" font-family="Helvetica,sans-Serif" font-size="9.00" fill="#000000">index.js</text>
</a>
</g>
</g>
<!-- lib/routes/index.js&#45;&gt;lib/user/index.js -->
<g id="edge6" class="edge">
<title>lib/routes/index.js&#45;&gt;lib/user/index.js</title>
<path fill="none" stroke="#000000" stroke-width="2" stroke-opacity="0.466667" d="M140.2806,-109.5C144.5804,-109.5 149.0897,-109.5 153.5713,-109.5"/>
<polygon fill="#000000" fill-opacity="0.466667" stroke="#000000" stroke-width="2" stroke-opacity="0.466667" points="153.8665,-113.0001 163.8665,-109.5 153.8665,-106.0001 153.8665,-113.0001"/>
</g>
<!-- lib/server.js -->
<g id="node9" class="node">
<title>lib/server.js</title>
<g id="a_node9"><a xlink:href="lib/server.js" xlink:title="server.js">
<path fill="#ffffcc" stroke="#000000" d="M64.3333,-59C64.3333,-59 21.6667,-59 21.6667,-59 18.8333,-59 16,-56.1667 16,-53.3333 16,-53.3333 16,-47.6667 16,-47.6667 16,-44.8333 18.8333,-42 21.6667,-42 21.6667,-42 64.3333,-42 64.3333,-42 67.1667,-42 70,-44.8333 70,-47.6667 70,-47.6667 70,-53.3333 70,-53.3333 70,-56.1667 67.1667,-59 64.3333,-59"/>
<text text-anchor="middle" x="43" y="-47.8" font-family="Helvetica,sans-Serif" font-size="9.00" fill="#000000">server.js</text>
</a>
</g>
</g>
<!-- lib/server.js&#45;&gt;lib/helpers/index.js -->
<g id="edge7" class="edge">
<title>lib/server.js&#45;&gt;lib/helpers/index.js</title>
<path fill="none" stroke="#000000" stroke-width="2" stroke-opacity="0.466667" d="M70.2643,-50.5C72.0061,-50.5 73.7749,-50.5 75.5522,-50.5"/>
<polygon fill="#000000" fill-opacity="0.466667" stroke="#000000" stroke-width="2" stroke-opacity="0.466667" points="75.695,-54.0001 85.695,-50.5 75.695,-47.0001 75.695,-54.0001"/>
</g>
<!-- lib/server.js&#45;&gt;lib/routes/index.js -->
<g id="edge8" class="edge">
<title>lib/server.js&#45;&gt;lib/routes/index.js</title>
<path fill="none" stroke="#000000" stroke-width="2" stroke-opacity="0.466667" d="M49.9681,-59.021C56.6724,-66.9244 67.3367,-78.7499 78,-87.5 81.3705,-90.2658 85.1124,-92.9578 88.8595,-95.4554"/>
<polygon fill="#000000" fill-opacity="0.466667" stroke="#000000" stroke-width="2" stroke-opacity="0.466667" points="87.1158,-98.4937 97.44,-100.8731 90.853,-92.5747 87.1158,-98.4937"/>
</g>
<!-- path -->
<g id="node11" class="node">
<title>path</title>
<path fill="#ffffcc" stroke="#c0c0c0" d="M134.3333,-17C134.3333,-17 91.6667,-17 91.6667,-17 88.8333,-17 86,-14.1667 86,-11.3333 86,-11.3333 86,-5.6667 86,-5.6667 86,-2.8333 88.8333,0 91.6667,0 91.6667,0 134.3333,0 134.3333,0 137.1667,0 140,-2.8333 140,-5.6667 140,-5.6667 140,-11.3333 140,-11.3333 140,-14.1667 137.1667,-17 134.3333,-17"/>
<text text-anchor="middle" x="113" y="-5.8" font-family="Helvetica,sans-Serif" font-size="9.00" fill="#c0c0c0">path</text>
</g>
<!-- lib/server.js&#45;&gt;path -->
<g id="edge9" class="edge">
<title>lib/server.js&#45;&gt;path</title>
<path fill="none" stroke="#c0c0c0" d="M57.504,-41.7976C66.7959,-36.2225 79.0635,-28.8619 89.7014,-22.4792"/>
<polygon fill="#c0c0c0" stroke="#c0c0c0" points="91.7403,-25.3375 98.5145,-17.1913 88.1388,-19.3351 91.7403,-25.3375"/>
</g>
<!-- lib/user/index.js&#45;&gt;lib/data/index.js -->
<g id="edge10" class="edge">
<title>lib/user/index.js&#45;&gt;lib/data/index.js</title>
<path fill="none" stroke="#000000" stroke-width="2" stroke-opacity="0.466667" d="M218.2632,-103.9336C224.3635,-102.688 230.933,-101.3467 237.3509,-100.0363"/>
<polygon fill="#000000" fill-opacity="0.466667" stroke="#000000" stroke-width="2" stroke-opacity="0.466667" points="238.1245,-103.4507 247.2222,-98.0209 236.7241,-96.5922 238.1245,-103.4507"/>
</g>
</g>
</svg>
