<?xml version="1.0" encoding="UTF-8" standalone="no"?>
<!DOCTYPE svg PUBLIC "-//W3C//DTD SVG 1.1//EN"
 "http://www.w3.org/Graphics/SVG/1.1/DTD/svg11.dtd">
<!-- Generated by graphviz version 2.40.1 (20161225.0304)
 -->
<!-- Title: dependency&#45;cruiser output Pages: 1 -->
<svg width="398pt" height="424pt"
 viewBox="0.00 0.00 397.55 423.50" xmlns="http://www.w3.org/2000/svg" xmlns:xlink="http://www.w3.org/1999/xlink">
<g id="graph0" class="graph" transform="scale(1 1) rotate(0) translate(4 419.5)">
<title>dependency&#45;cruiser output</title>
<polygon fill="#ffffff" stroke="transparent" points="-4,4 -4,-419.5 393.5464,-419.5 393.5464,4 -4,4"/>
<g id="clust1" class="cluster">
<title>cluster_lib</title>
<path fill="#ffffff" stroke="#000000" stroke-width="2" d="M20,-25.5C20,-25.5 315.5464,-25.5 315.5464,-25.5 321.5464,-25.5 327.5464,-31.5 327.5464,-37.5 327.5464,-37.5 327.5464,-395.5 327.5464,-395.5 327.5464,-401.5 321.5464,-407.5 315.5464,-407.5 315.5464,-407.5 20,-407.5 20,-407.5 14,-407.5 8,-401.5 8,-395.5 8,-395.5 8,-37.5 8,-37.5 8,-31.5 14,-25.5 20,-25.5"/>
<text text-anchor="middle" x="167.7732" y="-396.3" font-family="Helvetica,sans-Serif" font-weight="bold" font-size="9.00" fill="#000000">lib</text>
</g>
<g id="clust2" class="cluster">
<title>cluster_lib/api</title>
<path fill="#ffffff" stroke="#000000" stroke-width="2" d="M28,-298.5C28,-298.5 90,-298.5 90,-298.5 96,-298.5 102,-304.5 102,-310.5 102,-310.5 102,-370.5 102,-370.5 102,-376.5 96,-382.5 90,-382.5 90,-382.5 28,-382.5 28,-382.5 22,-382.5 16,-376.5 16,-370.5 16,-370.5 16,-310.5 16,-310.5 16,-304.5 22,-298.5 28,-298.5"/>
<text text-anchor="middle" x="59" y="-371.3" font-family="Helvetica,sans-Serif" font-weight="bold" font-size="9.00" fill="#000000">api</text>
</g>
<g id="clust3" class="cluster">
<title>cluster_lib/api/n26</title>
<path fill="#ffffff" stroke="#000000" stroke-width="2" d="M36,-306.5C36,-306.5 82,-306.5 82,-306.5 88,-306.5 94,-312.5 94,-318.5 94,-318.5 94,-345.5 94,-345.5 94,-351.5 88,-357.5 82,-357.5 82,-357.5 36,-357.5 36,-357.5 30,-357.5 24,-351.5 24,-345.5 24,-345.5 24,-318.5 24,-318.5 24,-312.5 30,-306.5 36,-306.5"/>
<text text-anchor="middle" x="59" y="-346.3" font-family="Helvetica,sans-Serif" font-weight="bold" font-size="9.00" fill="#000000">n26</text>
</g>
<g id="clust4" class="cluster">
<title>cluster_lib/data</title>
<path fill="#ffffff" stroke="#000000" stroke-width="2" d="M36,-147.5C36,-147.5 307.5464,-147.5 307.5464,-147.5 313.5464,-147.5 319.5464,-153.5 319.5464,-159.5 319.5464,-159.5 319.5464,-278.5 319.5464,-278.5 319.5464,-284.5 313.5464,-290.5 307.5464,-290.5 307.5464,-290.5 36,-290.5 36,-290.5 30,-290.5 24,-284.5 24,-278.5 24,-278.5 24,-159.5 24,-159.5 24,-153.5 30,-147.5 36,-147.5"/>
<text text-anchor="middle" x="171.7732" y="-279.3" font-family="Helvetica,sans-Serif" font-weight="bold" font-size="9.00" fill="#000000">data</text>
</g>
<g id="clust5" class="cluster">
<title>cluster_lib/data/user</title>
<path fill="#ffffff" stroke="#000000" stroke-width="2" d="M122,-155.5C122,-155.5 299.5464,-155.5 299.5464,-155.5 305.5464,-155.5 311.5464,-161.5 311.5464,-167.5 311.5464,-167.5 311.5464,-253.5 311.5464,-253.5 311.5464,-259.5 305.5464,-265.5 299.5464,-265.5 299.5464,-265.5 122,-265.5 122,-265.5 116,-265.5 110,-259.5 110,-253.5 110,-253.5 110,-167.5 110,-167.5 110,-161.5 116,-155.5 122,-155.5"/>
<text text-anchor="middle" x="210.7732" y="-254.3" font-family="Helvetica,sans-Serif" font-weight="bold" font-size="9.00" fill="#000000">user</text>
</g>
<g id="clust6" class="cluster">
<title>cluster_lib/data/user/__test</title>
<path fill="#ffffff" stroke="#000000" stroke-width="2" d="M130,-189.5C130,-189.5 213.5288,-189.5 213.5288,-189.5 219.5288,-189.5 225.5288,-195.5 225.5288,-201.5 225.5288,-201.5 225.5288,-228.5 225.5288,-228.5 225.5288,-234.5 219.5288,-240.5 213.5288,-240.5 213.5288,-240.5 130,-240.5 130,-240.5 124,-240.5 118,-234.5 118,-228.5 118,-228.5 118,-201.5 118,-201.5 118,-195.5 124,-189.5 130,-189.5"/>
<text text-anchor="middle" x="171.7644" y="-229.3" font-family="Helvetica,sans-Serif" font-weight="bold" font-size="9.00" fill="#000000">__test</text>
</g>
<g id="clust7" class="cluster">
<title>cluster_lib/routes</title>
<path fill="#ffffff" stroke="#000000" stroke-width="2" d="M148.7644,-33.5C148.7644,-33.5 194.7644,-33.5 194.7644,-33.5 200.7644,-33.5 206.7644,-39.5 206.7644,-45.5 206.7644,-45.5 206.7644,-72.5 206.7644,-72.5 206.7644,-78.5 200.7644,-84.5 194.7644,-84.5 194.7644,-84.5 148.7644,-84.5 148.7644,-84.5 142.7644,-84.5 136.7644,-78.5 136.7644,-72.5 136.7644,-72.5 136.7644,-45.5 136.7644,-45.5 136.7644,-39.5 142.7644,-33.5 148.7644,-33.5"/>
<text text-anchor="middle" x="171.7644" y="-73.3" font-family="Helvetica,sans-Serif" font-weight="bold" font-size="9.00" fill="#000000">routes</text>
</g>
<g id="clust8" class="cluster">
<title>cluster_lib/user</title>
<path fill="#ffffff" stroke="#000000" stroke-width="2" d="M36,-88.5C36,-88.5 82,-88.5 82,-88.5 88,-88.5 94,-94.5 94,-100.5 94,-100.5 94,-127.5 94,-127.5 94,-133.5 88,-139.5 82,-139.5 82,-139.5 36,-139.5 36,-139.5 30,-139.5 24,-133.5 24,-127.5 24,-127.5 24,-100.5 24,-100.5 24,-94.5 30,-88.5 36,-88.5"/>
<text text-anchor="middle" x="59" y="-128.3" font-family="Helvetica,sans-Serif" font-weight="bold" font-size="9.00" fill="#000000">user</text>
</g>
<!-- crypto -->
<g id="node1" class="node">
<title>crypto</title>
<path fill="#ffffcc" stroke="#c0c0c0" d="M383.8797,-215C383.8797,-215 341.2131,-215 341.2131,-215 338.3797,-215 335.5464,-212.1667 335.5464,-209.3333 335.5464,-209.3333 335.5464,-203.6667 335.5464,-203.6667 335.5464,-200.8333 338.3797,-198 341.2131,-198 341.2131,-198 383.8797,-198 383.8797,-198 386.7131,-198 389.5464,-200.8333 389.5464,-203.6667 389.5464,-203.6667 389.5464,-209.3333 389.5464,-209.3333 389.5464,-212.1667 386.7131,-215 383.8797,-215"/>
<text text-anchor="middle" x="362.5464" y="-203.8" font-family="Helvetica,sans-Serif" font-size="9.00" fill="#c0c0c0">crypto</text>
</g>
<!-- lib/api/n26/index.js -->
<g id="node2" class="node">
<title>lib/api/n26/index.js</title>
<g id="a_node2"><a xlink:href="lib/api/n26/index.js" xlink:title="index.js">
<path fill="#ffffcc" stroke="#000000" d="M80.3333,-332C80.3333,-332 37.6667,-332 37.6667,-332 34.8333,-332 32,-329.1667 32,-326.3333 32,-326.3333 32,-320.6667 32,-320.6667 32,-317.8333 34.8333,-315 37.6667,-315 37.6667,-315 80.3333,-315 80.3333,-315 83.1667,-315 86,-317.8333 86,-320.6667 86,-320.6667 86,-326.3333 86,-326.3333 86,-329.1667 83.1667,-332 80.3333,-332"/>
<text text-anchor="middle" x="59" y="-320.8" font-family="Helvetica,sans-Serif" font-size="9.00" fill="#000000">index.js</text>
</a>
</g>
</g>
<!-- lib/config.js -->
<g id="node3" class="node">
<title>lib/config.js</title>
<g id="a_node3"><a xlink:href="lib/config.js" xlink:title="config.js">
<path fill="#ffffcc" stroke="#000000" d="M80.3333,-80C80.3333,-80 37.6667,-80 37.6667,-80 34.8333,-80 32,-77.1667 32,-74.3333 32,-74.3333 32,-68.6667 32,-68.6667 32,-65.8333 34.8333,-63 37.6667,-63 37.6667,-63 80.3333,-63 80.3333,-63 83.1667,-63 86,-65.8333 86,-68.6667 86,-68.6667 86,-74.3333 86,-74.3333 86,-77.1667 83.1667,-80 80.3333,-80"/>
<text text-anchor="middle" x="59" y="-68.8" font-family="Helvetica,sans-Serif" font-size="9.00" fill="#000000">config.js</text>
</a>
</g>
</g>
<!-- lib/data/index.js -->
<g id="node4" class="node">
<title>lib/data/index.js</title>
<g id="a_node4"><a xlink:href="lib/data/index.js" xlink:title="index.js">
<path fill="#ffffcc" stroke="#000000" d="M80.3333,-181C80.3333,-181 37.6667,-181 37.6667,-181 34.8333,-181 32,-178.1667 32,-175.3333 32,-175.3333 32,-169.6667 32,-169.6667 32,-166.8333 34.8333,-164 37.6667,-164 37.6667,-164 80.3333,-164 80.3333,-164 83.1667,-164 86,-166.8333 86,-169.6667 86,-169.6667 86,-175.3333 86,-175.3333 86,-178.1667 83.1667,-181 80.3333,-181"/>
<text text-anchor="middle" x="59" y="-169.8" font-family="Helvetica,sans-Serif" font-size="9.00" fill="#000000">index.js</text>
</a>
</g>
</g>
<!-- lib/data/user/index.js -->
<g id="node6" class="node">
<title>lib/data/user/index.js</title>
<g id="a_node6"><a xlink:href="lib/data/user/index.js" xlink:title="index.js">
<path fill="#ffffcc" stroke="#000000" d="M193.0977,-181C193.0977,-181 150.4311,-181 150.4311,-181 147.5977,-181 144.7644,-178.1667 144.7644,-175.3333 144.7644,-175.3333 144.7644,-169.6667 144.7644,-169.6667 144.7644,-166.8333 147.5977,-164 150.4311,-164 150.4311,-164 193.0977,-164 193.0977,-164 195.9311,-164 198.7644,-166.8333 198.7644,-169.6667 198.7644,-169.6667 198.7644,-175.3333 198.7644,-175.3333 198.7644,-178.1667 195.9311,-181 193.0977,-181"/>
<text text-anchor="middle" x="171.7644" y="-169.8" font-family="Helvetica,sans-Serif" font-size="9.00" fill="#000000">index.js</text>
</a>
</g>
</g>
<!-- lib/data/index.js&#45;&gt;lib/data/user/index.js -->
<g id="edge1" class="edge">
<title>lib/data/index.js&#45;&gt;lib/data/user/index.js</title>
<path fill="none" stroke="#000000" stroke-width="2" stroke-opacity="0.466667" d="M86.0099,-172.5C100.548,-172.5 118.701,-172.5 134.5571,-172.5"/>
<polygon fill="#000000" fill-opacity="0.466667" stroke="#000000" stroke-width="2" stroke-opacity="0.466667" points="134.5841,-176.0001 144.5841,-172.5 134.5841,-169.0001 134.5841,-176.0001"/>
</g>
<!-- lib/data/user/__test/user&#45;model.spec.js -->
<g id="node5" class="node">
<title>lib/data/user/__test/user&#45;model.spec.js</title>
<g id="a_node5"><a xlink:href="lib/data/user/__test/user-model.spec.js" xlink:title="user&#45;model.spec.js">
<path fill="#ffffcc" stroke="#000000" d="M211.6278,-215C211.6278,-215 131.9011,-215 131.9011,-215 129.0677,-215 126.2344,-212.1667 126.2344,-209.3333 126.2344,-209.3333 126.2344,-203.6667 126.2344,-203.6667 126.2344,-200.8333 129.0677,-198 131.9011,-198 131.9011,-198 211.6278,-198 211.6278,-198 214.4611,-198 217.2944,-200.8333 217.2944,-203.6667 217.2944,-203.6667 217.2944,-209.3333 217.2944,-209.3333 217.2944,-212.1667 214.4611,-215 211.6278,-215"/>
<text text-anchor="middle" x="171.7644" y="-203.8" font-family="Helvetica,sans-Serif" font-size="9.00" fill="#000000">user&#45;model.spec.js</text>
</a>
</g>
</g>
<!-- lib/data/user/user&#45;model.js -->
<g id="node7" class="node">
<title>lib/data/user/user&#45;model.js</title>
<g id="a_node7"><a xlink:href="lib/data/user/user-model.js" xlink:title="user&#45;model.js">
<path fill="#ffffcc" stroke="#000000" d="M297.8885,-215C297.8885,-215 239.1867,-215 239.1867,-215 236.3534,-215 233.52,-212.1667 233.52,-209.3333 233.52,-209.3333 233.52,-203.6667 233.52,-203.6667 233.52,-200.8333 236.3534,-198 239.1867,-198 239.1867,-198 297.8885,-198 297.8885,-198 300.7218,-198 303.5552,-200.8333 303.5552,-203.6667 303.5552,-203.6667 303.5552,-209.3333 303.5552,-209.3333 303.5552,-212.1667 300.7218,-215 297.8885,-215"/>
<text text-anchor="middle" x="268.5376" y="-203.8" font-family="Helvetica,sans-Serif" font-size="9.00" fill="#000000">user&#45;model.js</text>
</a>
</g>
</g>
<!-- lib/data/user/__test/user&#45;model.spec.js&#45;&gt;lib/data/user/user&#45;model.js -->
<g id="edge2" class="edge">
<title>lib/data/user/__test/user&#45;model.spec.js&#45;&gt;lib/data/user/user&#45;model.js</title>
<path fill="none" stroke="#000000" stroke-width="2" stroke-opacity="0.466667" d="M217.3173,-206.5C219.2552,-206.5 221.1993,-206.5 223.1369,-206.5"/>
<polygon fill="#000000" fill-opacity="0.466667" stroke="#000000" stroke-width="2" stroke-opacity="0.466667" points="223.3672,-210.0001 233.3672,-206.5 223.3671,-203.0001 223.3672,-210.0001"/>
</g>
<!-- user&#45;model -->
<g id="node12" class="node">
<title>user&#45;model</title>
<path fill="#ffffcc" stroke="#ff0000" d="M293.3885,-17C293.3885,-17 243.6867,-17 243.6867,-17 240.8534,-17 238.02,-14.1667 238.02,-11.3333 238.02,-11.3333 238.02,-5.6667 238.02,-5.6667 238.02,-2.8333 240.8534,0 243.6867,0 243.6867,0 293.3885,0 293.3885,0 296.2218,0 299.0552,-2.8333 299.0552,-5.6667 299.0552,-5.6667 299.0552,-11.3333 299.0552,-11.3333 299.0552,-14.1667 296.2218,-17 293.3885,-17"/>
<text text-anchor="middle" x="268.5376" y="-5.8" font-family="Helvetica,sans-Serif" font-size="9.00" fill="#ff0000">user&#45;model</text>
</g>
<!-- lib/data/user/index.js&#45;&gt;user&#45;model -->
<g id="edge3" class="edge">
<title>lib/data/user/index.js&#45;&gt;user&#45;model</title>
<path fill="none" stroke="#000000" stroke-width="2" stroke-opacity="0.466667" d="M177.6092,-163.6849C187.6981,-148.3767 208.8978,-115.8023 225.5288,-87.5 237.715,-66.7618 250.807,-42.3794 259.303,-26.2458"/>
<polygon fill="#000000" fill-opacity="0.466667" stroke="#000000" stroke-width="2" stroke-opacity="0.466667" points="262.411,-27.8552 263.9499,-17.3727 256.2099,-24.6076 262.411,-27.8552"/>
</g>
<!-- lib/data/user/user&#45;model.js&#45;&gt;crypto -->
<g id="edge4" class="edge">
<title>lib/data/user/user&#45;model.js&#45;&gt;crypto</title>
<path fill="none" stroke="#c0c0c0" d="M303.8105,-206.5C310.8114,-206.5 318.1834,-206.5 325.2493,-206.5"/>
<polygon fill="#c0c0c0" stroke="#c0c0c0" points="325.3039,-210.0001 335.3039,-206.5 325.3038,-203.0001 325.3039,-210.0001"/>
</g>
<!-- lib/routes/index.js -->
<g id="node8" class="node">
<title>lib/routes/index.js</title>
<g id="a_node8"><a xlink:href="lib/routes/index.js" xlink:title="index.js">
<path fill="#ffffcc" stroke="#000000" d="M193.0977,-59C193.0977,-59 150.4311,-59 150.4311,-59 147.5977,-59 144.7644,-56.1667 144.7644,-53.3333 144.7644,-53.3333 144.7644,-47.6667 144.7644,-47.6667 144.7644,-44.8333 147.5977,-42 150.4311,-42 150.4311,-42 193.0977,-42 193.0977,-42 195.9311,-42 198.7644,-44.8333 198.7644,-47.6667 198.7644,-47.6667 198.7644,-53.3333 198.7644,-53.3333 198.7644,-56.1667 195.9311,-59 193.0977,-59"/>
<text text-anchor="middle" x="171.7644" y="-47.8" font-family="Helvetica,sans-Serif" font-size="9.00" fill="#000000">index.js</text>
</a>
</g>
</g>
<!-- lib/server.js -->
<g id="node9" class="node">
<title>lib/server.js</title>
<g id="a_node9"><a xlink:href="lib/server.js" xlink:title="server.js">
<path fill="#ffffcc" stroke="#000000" d="M80.3333,-51C80.3333,-51 37.6667,-51 37.6667,-51 34.8333,-51 32,-48.1667 32,-45.3333 32,-45.3333 32,-39.6667 32,-39.6667 32,-36.8333 34.8333,-34 37.6667,-34 37.6667,-34 80.3333,-34 80.3333,-34 83.1667,-34 86,-36.8333 86,-39.6667 86,-39.6667 86,-45.3333 86,-45.3333 86,-48.1667 83.1667,-51 80.3333,-51"/>
<text text-anchor="middle" x="59" y="-39.8" font-family="Helvetica,sans-Serif" font-size="9.00" fill="#000000">server.js</text>
</a>
</g>
</g>
<!-- lib/server.js&#45;&gt;lib/routes/index.js -->
<g id="edge5" class="edge">
<title>lib/server.js&#45;&gt;lib/routes/index.js</title>
<path fill="none" stroke="#000000" stroke-width="2" stroke-opacity="0.466667" d="M86.0099,-44.4162C100.548,-45.4476 118.701,-46.7354 134.5571,-47.8604"/>
<polygon fill="#000000" fill-opacity="0.466667" stroke="#000000" stroke-width="2" stroke-opacity="0.466667" points="134.3614,-51.3552 144.5841,-48.5717 134.8569,-44.3727 134.3614,-51.3552"/>
</g>
<!-- path -->
<g id="node11" class="node">
<title>path</title>
<path fill="#ffffcc" stroke="#c0c0c0" d="M193.0977,-17C193.0977,-17 150.4311,-17 150.4311,-17 147.5977,-17 144.7644,-14.1667 144.7644,-11.3333 144.7644,-11.3333 144.7644,-5.6667 144.7644,-5.6667 144.7644,-2.8333 147.5977,0 150.4311,0 150.4311,0 193.0977,0 193.0977,0 195.9311,0 198.7644,-2.8333 198.7644,-5.6667 198.7644,-5.6667 198.7644,-11.3333 198.7644,-11.3333 198.7644,-14.1667 195.9311,-17 193.0977,-17"/>
<text text-anchor="middle" x="171.7644" y="-5.8" font-family="Helvetica,sans-Serif" font-size="9.00" fill="#c0c0c0">path</text>
</g>
<!-- lib/server.js&#45;&gt;path -->
<g id="edge6" class="edge">
<title>lib/server.js&#45;&gt;path</title>
<path fill="none" stroke="#c0c0c0" d="M86.0099,-34.3562C100.6865,-29.931 119.047,-24.395 135.0095,-19.5821"/>
<polygon fill="#c0c0c0" stroke="#c0c0c0" points="136.0202,-22.9331 144.5841,-16.6952 133.9994,-16.2311 136.0202,-22.9331"/>
</g>
<!-- lib/user/index.js -->
<g id="node10" class="node">
<title>lib/user/index.js</title>
<g id="a_node10"><a xlink:href="lib/user/index.js" xlink:title="index.js">
<path fill="#ffffcc" stroke="#000000" d="M80.3333,-114C80.3333,-114 37.6667,-114 37.6667,-114 34.8333,-114 32,-111.1667 32,-108.3333 32,-108.3333 32,-102.6667 32,-102.6667 32,-99.8333 34.8333,-97 37.6667,-97 37.6667,-97 80.3333,-97 80.3333,-97 83.1667,-97 86,-99.8333 86,-102.6667 86,-102.6667 86,-108.3333 86,-108.3333 86,-111.1667 83.1667,-114 80.3333,-114"/>
<text text-anchor="middle" x="59" y="-102.8" font-family="Helvetica,sans-Serif" font-size="9.00" fill="#000000">index.js</text>
</a>
</g>
</g>
</g>
</svg>
